PathFileType	4	(X/Y/Z)	C:\Users\Gabre\Documents\2-Sophmore\Autumn\ME 191\Nick_10292018\Nick_10292018\Upper Extremity\shoulder_flexion.trc
DataRate	CameraRate	NumFrames	NumMarkers	Units	OrigDataRate	OrigDataStartFrame	OrigNumFrames
100.00	100.00	       11	21	mm	100.00	466	       621
Frame#	Time	Back_IMU_O			Back_IMU_D			Back_IMU_X			Back_IMU_Y			C7			R.Acromion			L.Acromion			R.Elbow			R.Radius			R.Ulna			R.Hand			Humerus_IMU_O			Humerus_IMU_D			Humerus_IMU_X			Humerus_IMU_Y			Forearm_IMU_O			Forearm_IMU_D			Forearm_IMU_X			Forearm_IMU_Y			Hand_IMU_O			Scapula_IMU_O			
		X1	Y1	Z1	X2	Y2	Z2	X3	Y3	Z3	X4	Y4	Z4	X5	Y5	Z5	X6	Y6	Z6	X7	Y7	Z7	X8	Y8	Z8	X9	Y9	Z9	X10	Y10	Z10	X11	Y11	Z11	X12	Y12	Z12	X13	Y13	Z13	X14	Y14	Z14	X15	Y15	Z15	X16	Y16	Z16	X17	Y17	Z17	X18	Y18	Z18	X19	Y19	Z19	X20	Y20	Z20	X21	Y21	Z21	

466	4.650	-897.23792	438.82938	1006.36053	-906.87244	514.56287	896.72363	-899.01782	524.58929	999.10529	-905.28839	430.48920	904.15472	-889.18317	483.60379	1023.02466	-836.83063	368.51788	1039.44861	-804.47516	659.42877	989.56757	-696.11810	228.69740	1255.99390	-687.77380	273.26730	1531.79932	-651.69562	231.30496	1517.90698	-667.91229	259.74774	1641.94531	-814.45239	335.10602	1131.27490	-764.74884	217.79390	1120.19238	-806.40436	241.38091	1072.99805	-773.35693	310.06110	1175.87000	-721.30182	276.06332	1467.54932	-638.50336	208.36517	1487.11719	-650.54028	210.05356	1441.51990	-706.23236	272.77441	1511.99121	-667.15564	234.94159	1594.06104	-863.72736	329.61798	1031.31055	
467	4.660	-897.39825	438.79919	1006.48511	-907.09302	514.59973	896.75439	-899.09821	524.57434	999.18488	-905.49274	430.30634	904.24371	-889.28571	483.49237	1023.06006	-836.85474	368.41559	1039.46912	-804.56671	659.43292	989.63263	-694.54285	228.43402	1255.38306	-685.36554	272.80576	1531.11377	-649.29236	231.12257	1517.09631	-665.60474	259.38882	1641.43567	-814.20819	334.68756	1131.37195	-764.31738	217.72018	1119.99231	-806.27094	240.95029	1072.91284	-772.50812	309.74673	1175.61597	-719.18652	275.81046	1467.00085	-636.13696	207.92381	1486.23206	-648.38483	209.84265	1440.74792	-703.95038	272.38409	1511.34314	-663.89575	234.55367	1593.11084	-863.73181	329.61636	1031.35107	
468	4.670	-897.58295	438.81107	1006.55688	-907.33850	514.68225	896.89716	-899.25342	524.54559	999.25531	-905.68854	430.33768	904.35852	-889.35114	483.49136	1023.09247	-836.97827	368.27310	1039.57019	-804.74017	659.38190	989.69501	-693.38654	228.32628	1254.64111	-682.85095	272.41769	1530.35327	-646.31042	230.78934	1515.95349	-662.28931	259.00082	1640.36963	-813.61029	334.43665	1131.15503	-763.23798	217.26717	1119.46191	-806.02136	240.65268	1072.93555	-771.84808	309.59686	1175.30444	-716.94110	275.06451	1466.36584	-633.34851	207.62857	1484.87671	-645.76367	209.50308	1439.60925	-701.64886	271.89548	1510.67859	-661.63068	234.21089	1592.39612	-863.74988	329.58655	1031.40356	
469	4.680	-897.82135	438.91849	1006.67017	-907.52106	514.70001	896.86627	-899.40686	524.46674	999.29578	-906.00439	430.21738	904.36450	-889.41278	483.52155	1023.07916	-837.06482	368.20551	1039.59375	-804.80438	659.33984	989.65771	-691.59381	227.69156	1253.58765	-679.66498	271.85022	1529.22302	-643.51276	230.42929	1514.70056	-659.16858	258.55975	1639.25293	-813.10382	334.03125	1131.05762	-762.58313	217.19942	1119.04285	-805.18176	240.11627	1072.50220	-771.17395	309.37900	1174.95898	-714.50073	274.62323	1465.64709	-630.43341	207.24196	1483.77234	-643.30286	208.98671	1438.52710	-698.44165	271.41858	1509.75696	-658.23120	233.87422	1591.22644	-863.75562	329.57834	1031.43860	
470	4.690	-897.99432	438.91568	1006.69946	-907.96539	514.68378	897.09564	-899.89691	524.50861	999.52899	-906.38733	430.35892	904.45648	-889.69135	483.54593	1023.07928	-837.10345	368.12381	1039.56836	-805.08868	659.40143	989.75848	-689.47632	227.05980	1252.42151	-676.15582	271.31628	1528.13306	-640.44971	230.19043	1513.53577	-654.98260	258.27502	1637.95374	-812.68060	333.43796	1131.03137	-761.79187	216.86394	1118.62488	-804.97351	239.89078	1072.41101	-769.86975	308.93030	1174.44714	-711.03735	274.19443	1464.38782	-626.99792	206.79866	1482.15967	-640.18262	208.80580	1437.16492	-695.16827	270.89432	1508.77429	-654.67841	233.60336	1590.09558	-863.82819	329.57312	1031.55969	
471	4.700	-898.40662	438.84985	1006.81165	-908.32996	514.74841	897.13660	-900.04089	524.55518	999.57458	-906.52393	430.38089	904.36151	-889.97235	483.56854	1023.25787	-837.06018	367.97842	1039.42480	-805.18390	659.39844	989.74438	-687.13202	226.49905	1250.96558	-672.60583	271.03909	1526.86572	-636.57410	229.51509	1511.95288	-650.41327	257.97964	1636.43811	-811.97656	333.00485	1130.93237	-760.51288	216.59480	1117.74402	-804.31799	239.26550	1071.93799	-769.03046	308.60254	1174.03931	-707.64215	273.56439	1463.11670	-624.05035	206.48369	1480.86548	-637.30164	208.12387	1435.66736	-691.45471	270.47012	1507.32874	-650.19751	233.05984	1588.44275	-863.87939	329.50793	1031.67444	
472	4.710	-898.55829	438.86627	1006.83405	-908.86371	514.82166	897.23938	-900.32703	524.66431	999.60260	-906.94836	430.50409	904.48267	-890.13916	483.67163	1023.31226	-837.12323	367.97824	1039.34558	-805.32489	659.41870	989.69781	-684.95404	225.75670	1249.48779	-668.28278	270.38306	1525.11633	-633.36334	229.10629	1510.39795	-645.64557	257.57788	1634.68628	-811.09857	332.53210	1130.60474	-759.81970	216.30096	1117.08411	-803.78674	239.04605	1071.65234	-767.85803	308.14609	1173.48254	-704.27625	272.92471	1461.85095	-620.37732	205.92288	1478.97180	-635.90607	207.41354	1434.77100	-687.63953	269.83957	1505.91602	-645.34119	232.75139	1586.55798	-863.99353	329.33984	1031.77332	
473	4.720	-898.89301	438.99014	1006.93854	-909.09534	515.00067	897.34045	-900.54559	524.83624	999.65784	-907.47302	430.69781	904.64777	-890.37946	483.96683	1023.40442	-837.13983	367.75916	1039.19092	-805.63568	659.38391	989.68079	-682.97723	224.77705	1247.65759	-664.14429	269.99823	1523.27209	-628.46820	228.50905	1507.87988	-640.41583	257.37476	1632.64099	-810.48065	331.97192	1130.40491	-758.41949	215.85649	1115.90674	-803.31195	238.45309	1071.29346	-766.22803	307.54742	1172.54541	-698.61530	272.42017	1459.65759	-616.31744	205.26520	1476.73743	-631.70026	206.75703	1432.40808	-683.54065	269.52380	1503.89368	-640.89056	232.18425	1584.85120	-864.19116	329.22913	1031.68994	
474	4.730	-899.29016	439.21906	1007.09546	-909.29504	515.11682	897.41089	-900.75342	524.97626	999.70428	-907.96808	430.91513	904.75372	-890.73877	484.03262	1023.54309	-837.05267	367.73383	1038.97388	-805.90485	659.57092	989.63849	-679.95630	223.96657	1245.52136	-659.23352	269.51083	1521.00830	-624.09637	228.12331	1505.59827	-634.33636	257.29044	1630.31897	-809.55847	331.26605	1130.15002	-757.50232	215.37184	1114.81628	-802.70007	237.83864	1070.59338	-764.55847	306.92889	1171.43286	-695.99371	271.68842	1458.13599	-611.51385	204.88672	1474.20032	-627.44690	206.11617	1430.13635	-678.98212	268.80109	1501.96167	-635.66125	232.12184	1582.46448	-864.33075	329.26080	1031.66443	
475	4.740	-899.77881	439.53052	1007.19629	-909.54120	515.52594	897.42462	-900.94916	525.25604	999.83289	-908.56250	431.19647	904.81995	-891.03601	484.17957	1023.60260	-837.18512	367.63187	1038.93396	-806.07233	659.69745	989.55811	-677.00616	222.37123	1243.00244	-654.54260	269.22565	1518.63245	-618.58710	227.53630	1502.63745	-628.15118	257.08298	1627.67004	-808.41077	330.37854	1129.60840	-756.06989	214.73392	1113.23792	-801.99060	237.28136	1069.85706	-762.77203	306.31119	1170.36633	-691.48065	270.79953	1455.80603	-607.10223	204.14365	1471.68042	-623.32709	205.26547	1427.31311	-675.12402	268.19595	1499.85266	-629.99750	231.85153	1579.83069	-864.37994	329.22321	1031.58643	
476	4.750	-900.00049	439.84515	1007.13824	-909.93695	515.77405	897.53827	-901.17932	525.63330	999.91290	-909.09747	431.42133	904.92261	-891.33252	484.43628	1023.54706	-837.26013	367.56131	1038.88696	-806.28320	659.76550	989.52802	-673.76569	220.65163	1240.36023	-649.15350	268.84836	1515.70081	-613.67865	227.13460	1499.60742	-621.95746	257.33096	1624.79187	-807.07983	329.59683	1129.12622	-754.50885	214.18417	1111.53906	-801.33844	236.73865	1068.80371	-760.78516	305.32208	1169.13037	-686.91943	270.16083	1452.88940	-601.79089	203.59610	1468.57837	-618.58868	204.51003	1424.66980	-669.32996	267.71997	1496.53333	-623.95618	231.57057	1576.77966	-864.61719	329.26831	1031.54285	
